<svg xmlns="http://www.w3.org/2000/svg" version="1.1" xmlns:xlink="http://www.w3.org/1999/xlink" width="1000" height="1000"><g clip-path="url(#SvgjsClipPath1067)"><rect width="1000" height="1000" fill="#ffffff"></rect><g transform="matrix(5.294117647058823,0,0,5.294117647058823,50,50)"><svg xmlns="http://www.w3.org/2000/svg" version="1.1" xmlns:xlink="http://www.w3.org/1999/xlink" width="170" height="170"><svg id="width-adjusted" xmlns="http://www.w3.org/2000/svg" viewBox="0 0 170 170">
  <defs>
    <style>
      .cls-1 {
        fill: #231f20;
      }
    </style>
  <clipPath id="SvgjsClipPath1067"><rect width="1000" height="1000" x="0" y="0" rx="350" ry="350"></rect></clipPath></defs>
  <g id="path2">
    <path class="cls-1" d="M25.78,34.01c21.34-3.31,44.02-2.21,63.88,7.34,15.15,7.32,28.99,21.04,30.32,38.71.35,5.67-.28,11.39-1.52,16.92-3.95,16.29-13.71,32.43-29.52,39.62-5.38,2.44-11.55,2.7-17.37,1.74-2.03-.36-4.02-.64-5.82-2.16-2.54-2.36-1.05-5.82,1.89-6.82,4.56-1.64,9.32-1.37,13.98-1.24,3.85.11,8.06.2,11.89.16,10.49.06,21.54-.75,32.01-.06.83.11.87,1.41,0,1.52-13.17,1.11-26.6,3.21-39.81,4.02-5.06.48-11.35.09-15.89,1.33,1.01-.78.96-2.78,0-3.45,2.41,1.08,5.54,1.07,8.22,1.11,7.93,0,14.76-4.86,19.96-10.7,9.01-10.35,13.99-24.19,14.64-37.88.84-11.08-5.13-21.49-13.26-28.82-11.49-10.36-26.57-15.68-41.85-18.01-10.33-1.54-20.92-1.68-31.46-.89-.67.05-1.26-.45-1.31-1.13-.05-.64.41-1.2,1.03-1.3h0Z"></path>
  </g>
  <g id="path5">
    <path class="cls-1" d="M70.47,62.54c1.89,11.45,6.53,22.38,11.04,33.02,2.97,6.26,5.71,13.04,9.5,18.73.29.43.74.76.5.69-.44-.12-.96-.07-1.35.17-.2.13-.08.14.08,0,.32-.25.8-.75,1.23-1.26,1.42-1.68,2.85-3.46,4.5-4.99.51-.47,1.31-.43,1.78.08.28.31.38.73.3,1.12-.33,1.51-.78,2.95-1.3,4.4-6.99,18.9-19.2-8.86-21.66-16.34-3.1-8.55-5.59-17.32-6.78-26.36-.36-3.03-.61-6.1-.34-9.22.06-.69.67-1.2,1.35-1.14.61.05,1.07.53,1.14,1.11h0Z"></path>
  </g>
</svg></svg></g></g></svg>